<svg xmlns="http://www.w3.org/2000/svg" width="23" height="23" viewBox="0 0 23 23">
  <g id="Group_22703" data-name="Group 22703" transform="translate(-0.5 -0.5)">
    <path id="Path_72538" data-name="Path 72538" d="M22.593,7.517c-.185.394-.387.794-.6,1.193a10.433,10.433,0,0,1,.523,2.791H20.354c-.251.4-.474.737-.647,1h2.809a10.477,10.477,0,0,1-1.539,5H17.733a17.969,17.969,0,0,0,.651-3.412l-.706-1.019c-.016-.022-.093-.135-.208-.306a17.465,17.465,0,0,1-.819,4.736H12.5v-5h4.793c-.174-.263-.4-.6-.647-1H12.5v-5h1.46a4.893,4.893,0,0,1-.318-1H12.5V1.55a3.513,3.513,0,0,1,1.538.74A5.019,5.019,0,0,1,15.027.916a11.47,11.47,0,1,0,7.566,6.6ZM8.789,1.962A9.9,9.9,0,0,0,6.607,5.5H3.718A10.579,10.579,0,0,1,8.789,1.962ZM3.024,6.5H6.266a19,19,0,0,0-.752,5H1.484A10.46,10.46,0,0,1,3.024,6.5Zm-1.54,6h4.03a18.952,18.952,0,0,0,.753,5H3.024A10.456,10.456,0,0,1,1.484,12.5Zm2.234,6h2.89A9.9,9.9,0,0,0,8.79,22.038,10.55,10.55,0,0,1,3.718,18.5ZM11.5,22.45c-1.509-.274-2.862-1.771-3.779-3.95H11.5Zm0-4.95H7.35a17.5,17.5,0,0,1-.836-5H11.5Zm0-6H6.514a17.489,17.489,0,0,1,.836-5H11.5Zm0-6H7.721c.917-2.18,2.27-3.676,3.779-3.95Zm1,16.95V18.5h3.779C15.361,20.68,14.009,22.176,12.5,22.45Zm2.71-.412A9.9,9.9,0,0,0,17.393,18.5h2.891A10.575,10.575,0,0,1,15.21,22.038Z"/>
    <path id="Path_72539" data-name="Path 72539" d="M14.547,4.968a3.945,3.945,0,0,0,.472,1.464A41.484,41.484,0,0,0,18.5,12.5a41.51,41.51,0,0,0,3.481-6.067,3.956,3.956,0,0,0,.472-1.465A2.715,2.715,0,0,0,22.5,4.5a4,4,0,0,0-8,0A2.715,2.715,0,0,0,14.547,4.968ZM18.5,2.5a2,2,0,1,1-2,2A2,2,0,0,1,18.5,2.5Z"/>
  </g>
</svg>
