<svg xmlns="http://www.w3.org/2000/svg" width="40" height="40" viewBox="0 0 40 40">
  <g id="Group_22705" data-name="Group 22705" transform="translate(-13.6 -13.6)">
    <path id="Path_72541" data-name="Path 72541" d="M33.6,13.6a20,20,0,1,0,20,20A20,20,0,0,0,33.6,13.6Zm6.978,24.56a1.859,1.859,0,0,1,0,2.692,1.907,1.907,0,0,1-2.692,0h0l-4.67-4.67-4.67,4.67a1.9,1.9,0,0,1-2.692-2.692l4.67-4.67-4.67-4.67a1.9,1.9,0,0,1,2.692-2.692l4.67,4.67,4.67-4.67a1.9,1.9,0,0,1,2.692,2.692l-4.67,4.67Z"/>
  </g>
</svg>
