<svg xmlns="http://www.w3.org/2000/svg" width="22.551" height="15.034" viewBox="0 0 22.551 15.034">
  <path id="Path_72540" data-name="Path 72540" d="M25.672,20H6.879A1.893,1.893,0,0,0,5,21.879V33.155a1.893,1.893,0,0,0,1.879,1.879H25.672a1.893,1.893,0,0,0,1.879-1.879V21.879A1.893,1.893,0,0,0,25.672,20Zm-.251,1.253-.175.175L16.275,29.2l-8.97-7.767-.175-.175ZM6.478,32.679l-.025.025-.2.2V22.13l.175.175.025.025,5.963,5.187Zm.651,1.1.175-.175,6.089-5.262L15.874,30.5a.666.666,0,0,0,.4.15.614.614,0,0,0,.4-.15l2.481-2.155,6.089,5.262.175.175ZM26.3,32.9l-.175-.175L26.1,32.7l-5.963-5.187L26.1,22.355l.025-.025.175-.175V32.9Z" transform="translate(-5 -20)"/>
</svg>
