<svg xmlns="http://www.w3.org/2000/svg" width="41.183" height="41.182" viewBox="0 0 41.183 41.182">
  <path id="send"
    d="M31.893.2a1.129,1.129,0,0,1,.488,1.157L27.752,29.127a1.137,1.137,0,0,1-.579.814,1.108,1.108,0,0,1-.561.145,1.22,1.22,0,0,1-.434-.09l-8.19-3.345-4.376,5.333a1.065,1.065,0,0,1-.886.416.982.982,0,0,1-.4-.072,1.157,1.157,0,0,1-.76-1.085v-6.31L27.192,5.785,7.865,22.509.723,19.581A1.144,1.144,0,0,1,.578,17.52L30.663.163A1.1,1.1,0,0,1,31.242,0a1.121,1.121,0,0,1,.651.2Z"
    transform="translate(10.55 0.001) rotate(19)" fill="#fff" />
</svg>